<?xml version="1.0" standalone="no"?>
<!DOCTYPE svg PUBLIC "-//W3C//DTD SVG 20010904//EN"
 "http://www.w3.org/TR/2001/REC-SVG-20010904/DTD/svg10.dtd">
<svg version="1.0" xmlns="http://www.w3.org/2000/svg"
 width="300.000000pt" height="227.000000pt" viewBox="0 0 300.000000 227.000000"
 preserveAspectRatio="xMidYMid meet">
<metadata>
Created by potrace 1.10, written by Peter Selinger 2001-2011
</metadata>
<g transform="translate(0.000000,227.000000) scale(0.100000,-0.100000)"
fill="#000000" stroke="none">
<path d="M1178 1642 l-288 -167 3 -334 2 -334 283 -164 c156 -89 288 -163 294
-163 6 0 131 70 277 154 147 85 274 158 284 162 16 6 17 33 17 343 l0 336
-290 168 c-159 92 -291 167 -292 166 -2 0 -132 -76 -290 -167z m568 -19 l274
-158 -3 -324 -2 -324 -272 -157 -271 -157 -274 158 -273 157 -2 324 -2 323
272 157 c150 86 274 157 275 157 2 1 127 -70 278 -156z"/>
<path d="M1245 1579 c-121 -70 -224 -131 -230 -133 -14 -7 -11 -9 237 -152
l218 -125 85 48 c47 26 85 50 85 53 0 3 -25 20 -56 38 l-56 32 -27 -19 -26
-19 -117 66 c-65 37 -117 69 -117 72 0 9 213 125 229 125 17 0 230 -117 230
-126 0 -3 -12 -11 -27 -18 -30 -14 -27 -18 42 -56 l50 -27 88 50 c49 28 84 52
80 55 -144 84 -463 267 -465 266 -2 0 -102 -59 -223 -130z m420 -24 c99 -57
180 -110 180 -117 0 -7 -20 -23 -44 -35 -42 -21 -46 -22 -63 -6 -11 10 -17 25
-15 34 8 30 -61 83 -195 150 -20 11 -47 19 -59 19 -25 0 -191 -90 -226 -123
-13 -11 -23 -28 -23 -37 0 -29 66 -78 188 -140 51 -26 63 -28 95 -19 37 10 57
6 57 -11 0 -12 -64 -50 -85 -50 -15 0 -86 37 -210 110 -16 10 -61 36 -100 58
-38 22 -70 45 -70 51 0 13 352 220 375 221 8 0 96 -47 195 -105z"/>
<path d="M970 1117 l0 -272 52 -30 c29 -16 56 -31 60 -33 5 -2 8 26 8 62 0 36
3 66 6 66 3 0 18 -8 32 -18 15 -10 77 -47 137 -82 61 -34 125 -71 143 -82 l32
-20 0 204 0 203 -102 60 c-57 32 -163 94 -235 136 l-133 77 0 -271z m158 137
c53 -31 111 -65 127 -74 160 -92 145 -67 145 -242 0 -163 -3 -168 -58 -130
-30 21 -124 74 -191 108 -53 27 -74 20 -96 -33 -13 -30 -17 -33 -30 -23 -12
10 -15 48 -15 225 0 187 3 225 17 225 2 0 47 -25 101 -56z"/>
<path d="M1075 1190 c-24 -27 -31 -97 -12 -141 12 -29 33 -46 120 -97 59 -34
115 -62 126 -62 32 0 51 38 51 101 0 63 -16 86 -96 134 -39 24 -160 85 -167
85 -2 0 -12 -9 -22 -20z m133 -75 l110 -65 4 -68 c3 -37 4 -68 3 -70 -1 -1
-51 27 -111 63 -60 36 -112 65 -116 65 -5 0 -8 32 -8 70 0 39 2 70 4 70 2 0
53 -29 114 -65z"/>
<path d="M1945 1374 c-11 -8 -116 -70 -232 -137 l-213 -122 0 -167 c0 -93 2
-168 4 -168 3 0 82 45 177 100 95 55 173 99 175 98 1 -2 -1 -18 -4 -37 -7 -31
-20 -41 -180 -133 l-172 -100 0 -68 0 -68 235 136 235 137 0 168 c0 92 -2 167
-4 167 -3 0 -247 -141 -313 -182 l-33 -20 0 35 c0 35 1 36 168 132 92 53 171
100 175 104 4 5 7 38 5 74 -3 64 -4 65 -23 51z m-15 -83 c0 -19 -25 -36 -235
-158 -79 -46 -101 -67 -110 -104 -5 -19 0 -33 17 -53 l23 -28 85 45 c47 24
108 58 135 74 91 53 85 59 85 -80 l0 -122 -174 -102 c-187 -109 -216 -122
-216 -101 0 27 31 51 140 110 144 78 179 102 197 135 16 31 16 36 3 61 -9 15
-26 28 -38 30 -13 2 -73 -26 -153 -72 -73 -41 -136 -73 -140 -70 -5 3 -9 56
-9 118 0 93 3 116 16 127 26 22 348 207 362 208 6 1 12 -8 12 -18z"/>
</g>
</svg>
